{
	"asset":{
		"generator":"Khronos glTF Blender I/O v3.5.30",
		"version":"2.0"
	},
	"extensionsUsed":[
		"KHR_materials_transmission",
		"KHR_materials_specular",
		"KHR_materials_ior"
	],
	"scene":0,
	"scenes":[
		{
			"name":"Scene",
			"nodes":[
				0,
				2,
				1,
				3,
				4,
				5,
				6
			]
		}
	],
	"nodes":[
		{
			"mesh":0,
			"name":"Obudowa",
			"scale":[
				0.10000002384185791,
				0.096107617020607,
				0.10000002384185791
			],
			"translation":[
				0.045428432524204254,
				1.0971213579177856,
				0.0059240711852908134
			]
		},
		{
			"mesh":1,
			"name":"Cube.001",
			"scale":[
				0.07965113967657089,
				0.05824199691414833,
				0.08704093098640442
			],
			"translation":[
				0.045428432524204254,
				0.6888875365257263,
				0.0059240711852908134
			]
		},
		{
			"mesh":2,
			"name":"Cube.002",
			"scale":[
				0.07965113967657089,
				0.05824199691414833,
				0.08704093098640442
			],
			"translation":[
				0.045428432524204254,
				0.6888875365257263,
				0.0059240711852908134
			]
		},
		{
			"mesh":3,
			"name":"Cube.003",
			"scale":[
				0.07965113967657089,
				0.05824199691414833,
				0.08704093098640442
			],
			"translation":[
				0.045428432524204254,
				0.6888875365257263,
				0.0059240711852908134
			]
		},
		{
			"mesh":4,
			"name":"Cube.004",
			"scale":[
				0.07965113967657089,
				0.05824199691414833,
				0.08704093098640442
			],
			"translation":[
				0.045428432524204254,
				0.6888875365257263,
				0.0059240711852908134
			]
		},
		{
			"mesh":5,
			"name":"Cube.005",
			"scale":[
				0.07965113967657089,
				0.05824199691414833,
				0.08704093098640442
			],
			"translation":[
				0.045428432524204254,
				0.6888875365257263,
				0.0059240711852908134
			]
		},
		{
			"mesh":6,
			"name":"Cube.006",
			"scale":[
				0.07965113967657089,
				0.05824199691414833,
				0.08704093098640442
			],
			"translation":[
				0.045428432524204254,
				0.6888875365257263,
				0.0059240711852908134
			]
		},
		{
			"mesh":7,
			"name":"Cube.007",
			"scale":[
				0.07965113967657089,
				0.05824199691414833,
				0.08704093098640442
			],
			"translation":[
				0.045428432524204254,
				0.6888875365257263,
				0.0059240711852908134
			]
		},
		{
			"mesh":8,
			"name":"Cube.008",
			"scale":[
				0.07965113967657089,
				0.05824199691414833,
				0.08704093098640442
			],
			"translation":[
				0.045428432524204254,
				0.6888875365257263,
				0.0059240711852908134
			]
		}
	],
	"materials":[
		{
			"doubleSided":true,
			"extensions":{
				"KHR_materials_transmission":{
					"transmissionFactor":1
				},
				"KHR_materials_specular":{
					"specularColorFactor":[
						1,
						1,
						1
					]
				},
				"KHR_materials_ior":{
					"ior":1.4500000476837158
				}
			},
			"name":"Material.001",
			"pbrMetallicRoughness":{
				"baseColorFactor":[
					1,
					1,
					1,
					0.23
				],
				"metallicFactor":0.8
			},
			"emissiveFactor": [
				0,
				0,
				0
			  ],
			  "alphaMode": "BLEND"
		},
		{
			"doubleSided":true,
			"name":"2",
			"pbrMetallicRoughness":{
				"baseColorFactor":[
					0.8000000715255737,
					0.16524337232112885,
					0.019924884662032127,
					1
				],
				"metallicFactor":0
			},
			"emissiveFactor": [
				0,
				0,
				0
			  ],
			  "alphaMode": "BLEND"
		},
		{
			"doubleSided":true,
			"name":"1",
			"pbrMetallicRoughness":{
				"baseColorFactor":[
					0.8000000715255737,
					0.016443364322185516,
					0.005732893943786621,
					1
				],
				"metallicFactor":0
			}
		},
		{
			"doubleSided":true,
			"name":"3",
			"pbrMetallicRoughness":{
				"baseColorFactor":[
					0.8000000715255737,
					0.4304479956626892,
					0.028404317796230316,
					1
				],
				"metallicFactor":0
			}

		},
		{
			"doubleSided":true,
			"name":"4",
			"pbrMetallicRoughness":{
				"baseColorFactor":[
					0.8000000715255737,
					0.6596189141273499,
					0.029163338243961334,
					1
				],
				"metallicFactor":0
			}
		},
		{
			"doubleSided":true,
			"name":"5",
			"pbrMetallicRoughness":{
				"baseColorFactor":[
					0.6253111362457275,
					0.8000000715255737,
					0.03967389091849327,
					1
				],
				"metallicFactor":0
			}
		},
		{
			"doubleSided":true,
			"name":"6",
			"pbrMetallicRoughness":{
				"baseColorFactor":[
					0.38290226459503174,
					0.8000000715255737,
					0.045204371213912964,
					1
				],
				"metallicFactor":0
			}
		},
		{
			"doubleSided":true,
			"name":"7",
			"pbrMetallicRoughness":{
				"baseColorFactor":[
					0.17225027084350586, 
					0.8000000715255737,
					0.04794622212648392,
					1
				],
				"metallicFactor":0
			}
		},
		{
			"doubleSided":true,
			"name":"7.001",
			"pbrMetallicRoughness":{
				"baseColorFactor":[
					0,
					0.8000000715255737,
					0.006265878677368164,
					1
				],
				"metallicFactor":0
			}
		}
	],
	"meshes":[
		{
			"name":"Cube",
			"primitives":[
				{
					"attributes":{
						"POSITION":0
					},
					"indices":1,
					"material":0
				}
			]
		},
		{
			"name":"Cube.001",
			"primitives":[
				{
					"attributes":{
						"POSITION":2
					},
					"indices":3,
					"material":1
				}
			]
		},
		{
			"name":"Cube.002",
			"primitives":[
				{
					"attributes":{
						"POSITION":4
					},
					"indices":3,
					"material":2
				}
			]
		},
		{
			"name":"Cube.003",
			"primitives":[
				{
					"attributes":{
						"POSITION":5
					},
					"indices":6,
					"material":3
				}
			]
		},
		{
			"name":"Cube.004",
			"primitives":[
				{
					"attributes":{
						"POSITION":7
					},
					"indices":6,
					"material":4
				}
			]
		},
		{
			"name":"Cube.005",
			"primitives":[
				{
					"attributes":{
						"POSITION":8
					},
					"indices":6,
					"material":5
				}
			]
		},
		{
			"name":"Cube.006",
			"primitives":[
				{
					"attributes":{
						"POSITION":9
					},
					"indices":6,
					"material":6
				}
			]
		},
		{
			"name":"Cube.007",
			"primitives":[
				{
					"attributes":{
						"POSITION":10
					},
					"indices":6,
					"material":7
				}
			]
		},
		{
			"name":"Cube.008",
			"primitives":[
				{
					"attributes":{
						"POSITION":11
					},
					"indices":6,
					"material":8
				}
			]
		}
	],
	"accessors":[
		{
			"bufferView":0,
			"componentType":5126,
			"count":216,
			"max":[
				1,
				5.044666767120361,
				1
			],
			"min":[
				-1,
				-5.044666767120361,
				-1
			],
			"type":"VEC3"
		},
		{
			"bufferView":1,
			"componentType":5123,
			"count":1284,
			"type":"SCALAR"
		},
		{
			"bufferView":2,
			"componentType":5126,
			"count":152,
			"max":[
				1,
				3,
				1
			],
			"min":[
				-1,
				1,
				-1
			],
			"type":"VEC3"
		},
		{
			"bufferView":3,
			"componentType":5123,
			"count":900,
			"type":"SCALAR"
		},
		{
			"bufferView":4,
			"componentType":5126,
			"count":152,
			"max":[
				1,
				1,
				1
			],
			"min":[
				-1,
				-1,
				-1
			],
			"type":"VEC3"
		},
		{
			"bufferView":5,
			"componentType":5126,
			"count":152,
			"max":[
				1,
				5,
				1
			],
			"min":[
				-1,
				3,
				-1
			],
			"type":"VEC3"
		},
		{
			"bufferView":6,
			"componentType":5123,
			"count":900,
			"type":"SCALAR"
		},
		{
			"bufferView":7,
			"componentType":5126,
			"count":152,
			"max":[
				1,
				7,
				1
			],
			"min":[
				-1,
				5,
				-1
			],
			"type":"VEC3"
		},
		{
			"bufferView":8,
			"componentType":5126,
			"count":152,
			"max":[
				1,
				9,
				1
			],
			"min":[
				-1,
				7,
				-1
			],
			"type":"VEC3"
		},
		{
			"bufferView":9,
			"componentType":5126,
			"count":152,
			"max":[
				1,
				11,
				1
			],
			"min":[
				-1,
				9,
				-1
			],
			"type":"VEC3"
		},
		{
			"bufferView":10,
			"componentType":5126,
			"count":152,
			"max":[
				1,
				13,
				1
			],
			"min":[
				-1,
				11,
				-1
			],
			"type":"VEC3"
		},
		{
			"bufferView":11,
			"componentType":5126,
			"count":152,
			"max":[
				1,
				15,
				1
			],
			"min":[
				-1,
				13,
				-1
			],
			"type":"VEC3"
		}
	],
	"bufferViews":[
		{
			"buffer":0,
			"byteLength":2592,
			"byteOffset":0,
			"target":34962
		},
		{
			"buffer":0,
			"byteLength":2568,
			"byteOffset":2592,
			"target":34963
		},
		{
			"buffer":0,
			"byteLength":1824,
			"byteOffset":5160,
			"target":34962
		},
		{
			"buffer":0,
			"byteLength":1800,
			"byteOffset":6984,
			"target":34963
		},
		{
			"buffer":0,
			"byteLength":1824,
			"byteOffset":8784,
			"target":34962
		},
		{
			"buffer":0,
			"byteLength":1824,
			"byteOffset":10608,
			"target":34962
		},
		{
			"buffer":0,
			"byteLength":1800,
			"byteOffset":12432,
			"target":34963
		},
		{
			"buffer":0,
			"byteLength":1824,
			"byteOffset":14232,
			"target":34962
		},
		{
			"buffer":0,
			"byteLength":1824,
			"byteOffset":16056,
			"target":34962
		},
		{
			"buffer":0,
			"byteLength":1824,
			"byteOffset":17880,
			"target":34962
		},
		{
			"buffer":0,
			"byteLength":1824,
			"byteOffset":19704,
			"target":34962
		},
		{
			"buffer":0,
			"byteLength":1824,
			"byteOffset":21528,
			"target":34962
		}
	],
	"buffers":[
		{
			"byteLength":23352,
			"uri":"data:application/octet-stream;base64,"
		}
	]
}
